<?xml version="1.0" standalone="no"?>
<!DOCTYPE svg PUBLIC "-//W3C//DTD SVG 20010904//EN"
 "http://www.w3.org/TR/2001/REC-SVG-20010904/DTD/svg10.dtd">
<svg version="1.0" xmlns="http://www.w3.org/2000/svg"
 width="512.000000pt" height="512.000000pt" viewBox="0 0 512.000000 512.000000"
 preserveAspectRatio="xMidYMid meet">
<metadata>
Created by potrace 1.14, written by Peter Selinger 2001-2017
</metadata>
<g transform="translate(0.000000,512.000000) scale(0.100000,-0.100000)"
fill="#000000" stroke="none">
<path d="M916 3860 c-136 -236 -249 -436 -252 -443 -3 -8 59 -91 148 -198 136
-163 467 -563 508 -613 8 -10 20 -23 25 -30 10 -11 335 -403 365 -440 8 -10
20 -23 25 -30 6 -6 44 -51 85 -101 41 -49 77 -92 80 -95 3 -3 23 -27 45 -55
43 -54 179 -217 208 -250 10 -11 35 -41 55 -67 20 -27 39 -48 43 -48 7 0 22
17 61 71 49 68 301 407 315 424 9 11 26 33 37 50 22 31 297 402 368 497 7 9
47 62 88 118 l74 102 41 -44 c48 -53 156 -174 184 -207 18 -21 142 -159 166
-185 6 -6 44 -49 85 -96 41 -47 91 -103 111 -125 20 -22 94 -105 164 -185 70
-80 141 -158 156 -175 15 -16 40 -43 54 -60 15 -16 55 -61 89 -100 121 -137
160 -180 187 -210 15 -16 38 -42 51 -56 119 -136 237 -268 252 -285 6 -6 38
-41 71 -79 33 -38 75 -84 93 -104 18 -20 47 -53 65 -73 17 -21 35 -38 39 -38
5 0 33 16 63 36 l55 37 -117 226 c-63 124 -137 267 -163 316 -26 50 -89 171
-140 270 -51 99 -126 245 -168 325 -41 80 -110 215 -154 300 -45 85 -106 205
-138 265 -32 61 -99 191 -150 290 -51 99 -123 239 -160 310 -37 72 -107 207
-155 300 -48 94 -118 229 -155 300 -37 72 -102 198 -145 280 -138 267 -158
305 -164 305 -3 -1 -69 -89 -146 -197 -77 -108 -165 -230 -196 -272 -55 -75
-138 -191 -254 -351 -33 -46 -87 -120 -120 -166 -33 -45 -67 -92 -75 -104 -8
-12 -35 -50 -60 -84 -25 -33 -78 -107 -119 -163 -77 -109 -89 -122 -100 -105
-3 5 -16 23 -28 38 -21 28 -92 124 -437 589 -93 127 -240 325 -326 440 -85
116 -182 247 -215 292 -33 45 -63 82 -66 83 -4 0 -118 -193 -253 -430z"/>
<path d="M578 2566 c-1 -2 -25 -6 -53 -9 -90 -9 -119 -18 -213 -65 -143 -72
-259 -222 -297 -387 -20 -85 -14 -224 14 -307 43 -130 150 -259 269 -326 40
-22 122 -52 160 -58 21 -3 40 -8 43 -10 4 -2 33 -4 65 -5 178 -3 326 59 444
188 280 302 161 793 -228 940 -35 13 -89 26 -120 29 -32 3 -62 7 -69 9 -6 2
-13 2 -15 1z"/>
</g>
</svg>
